<?xml version="1.0" encoding="UTF-8"?>
<!DOCTYPE svg PUBLIC "-//W3C//DTD SVG 1.1//EN" "http://www.w3.org/Graphics/SVG/1.1/DTD/svg11.dtd">
<svg xmlns="http://www.w3.org/2000/svg" version="1.1" width="500px" height="500px" style="shape-rendering:geometricPrecision; text-rendering:geometricPrecision; image-rendering:optimizeQuality; fill-rule:evenodd; clip-rule:evenodd" xmlns:xlink="http://www.w3.org/1999/xlink">
<g><path style="opacity:1" fill="#201e1f" d="M 149.5,30.5 C 153.809,35.0956 157.142,40.4289 159.5,46.5C 159.957,47.2975 160.624,47.6309 161.5,47.5C 161.5,47.8333 161.5,48.1667 161.5,48.5C 160.957,48.56 160.624,48.8933 160.5,49.5C 162.764,55.1321 164.431,60.6321 165.5,66C 163.859,67.6458 164.193,68.6458 166.5,69C 166.167,69.3333 165.833,69.6667 165.5,70C 166.288,73.0757 166.788,76.2423 167,79.5C 167.5,111.498 167.667,143.498 167.5,175.5C 167.515,227.285 167.515,278.952 167.5,330.5C 169.233,333.955 169.566,337.455 168.5,341C 169.667,341.5 170.5,342.333 171,343.5C 171.464,342.906 171.631,342.239 171.5,341.5C 173.756,348.592 176.422,355.592 179.5,362.5C 178.427,363.251 178.26,364.251 179,365.5C 182.468,370.934 186.301,376.101 190.5,381C 191.448,381.483 192.448,381.649 193.5,381.5C 193.768,379.901 193.434,378.568 192.5,377.5C 192.5,377.167 192.5,376.833 192.5,376.5C 192.839,331.951 193.839,287.451 195.5,243C 193.515,218.061 192.848,192.895 193.5,167.5C 193.333,136.165 193.5,104.832 194,73.5C 194.383,74.056 194.883,74.3893 195.5,74.5C 200.063,81.235 205.563,87.235 212,92.5C 214.958,96.9157 217.792,101.416 220.5,106C 216.774,107.043 217.107,107.543 221.5,107.5C 221.201,109.604 221.534,111.604 222.5,113.5C 223.391,115.952 224.391,117.619 225.5,118.5C 226.338,118.842 226.672,119.508 226.5,120.5C 226.036,122.914 225.702,125.414 225.5,128C 227.018,133.905 228.018,139.905 228.5,146C 228.167,146.333 227.833,146.667 227.5,147C 228.332,233.43 228.832,319.93 229,406.5C 245.097,412.852 261.597,414.019 278.5,410C 277.944,409.617 277.611,409.117 277.5,408.5C 278.167,408.5 278.833,408.5 279.5,408.5C 294.645,406.6 307.978,400.267 319.5,389.5C 320.952,388.06 321.952,386.394 322.5,384.5C 325.028,383.816 327.195,382.482 329,380.5C 336.172,372.003 341.672,362.503 345.5,352C 345.43,351.235 345.097,350.735 344.5,350.5C 345.971,346.282 346.971,341.949 347.5,337.5C 349.045,336.77 349.878,335.437 350,333.5C 350.804,323.127 350.471,312.793 349,302.5C 348.844,299.809 348.011,297.476 346.5,295.5C 346.323,291.292 344.99,287.626 342.5,284.5C 329.474,254.976 307.141,236.809 275.5,230C 258.115,224.106 249.448,211.939 249.5,193.5C 259.025,193.74 268.358,193.74 277.5,193.5C 278.5,193.5 279.5,193.5 280.5,193.5C 280.082,194.222 279.416,194.722 278.5,195C 336.585,207.248 372.585,242.415 386.5,300.5C 386.5,300.833 386.5,301.167 386.5,301.5C 386.452,308.62 386.452,315.787 386.5,323C 386.162,329.367 385.496,335.701 384.5,342C 384.514,343.385 384.848,344.551 385.5,345.5C 385.5,346.167 385.5,346.833 385.5,347.5C 384.883,347.389 384.383,347.056 384,346.5C 368.938,403.869 331.771,437.369 272.5,447C 263.84,447.5 255.173,447.666 246.5,447.5C 240.551,446.244 234.551,445.244 228.5,444.5C 228.824,459.412 228.491,474.245 227.5,489C 228.044,489.717 228.711,490.217 229.5,490.5C 229.217,491.289 228.717,491.956 228,492.5C 225.148,489.507 222.982,486.174 221.5,482.5C 220.448,482.649 219.448,482.483 218.5,482C 203.479,467.789 194.979,450.289 193,429.5C 185.674,424.335 178.507,419.002 171.5,413.5C 161.036,401.917 152.036,389.251 144.5,375.5C 144.043,374.702 143.376,374.369 142.5,374.5C 140.313,369.278 138.313,363.944 136.5,358.5C 137.124,358.083 137.457,357.416 137.5,356.5C 134.916,349.943 133.916,343.276 134.5,336.5C 135.939,313.481 135.606,290.481 133.5,267.5C 135.446,224.993 136.113,183.159 135.5,142C 134.833,141.667 134.167,141.333 133.5,141C 134.139,104.773 134.139,68.2727 133.5,31.5C 139.026,31.8214 144.36,31.4881 149.5,30.5 Z"/></g>
<g><path style="opacity:0.933" fill="#0f0f0f" d="M 134.5,13.5 C 135.167,13.5 135.833,13.5 136.5,13.5C 142.458,20.6286 148.625,27.6286 155,34.5C 157.433,38.7473 159.599,43.0807 161.5,47.5C 160.624,47.6309 159.957,47.2975 159.5,46.5C 157.142,40.4289 153.809,35.0956 149.5,30.5C 144.099,25.1047 139.099,19.438 134.5,13.5 Z"/></g>
<g><path style="opacity:0.719" fill="#090708" d="M 196.5,74.5 C 196.167,74.5 195.833,74.5 195.5,74.5C 194.883,74.3893 194.383,74.056 194,73.5C 193.5,104.832 193.333,136.165 193.5,167.5C 193.167,167.5 192.833,167.5 192.5,167.5C 192.333,134.832 192.5,102.165 193,69.5C 193.997,71.3231 195.164,72.9897 196.5,74.5 Z"/></g>
<g><path style="opacity:0.267" fill="#111010" d="M 195.5,74.5 C 195.833,74.5 196.167,74.5 196.5,74.5C 204.2,82.033 211.367,90.033 218,98.5C 221.92,104.666 224.42,111.333 225.5,118.5C 224.391,117.619 223.391,115.952 222.5,113.5C 221.534,111.604 221.201,109.604 221.5,107.5C 217.107,107.543 216.774,107.043 220.5,106C 217.792,101.416 214.958,96.9157 212,92.5C 205.563,87.235 200.063,81.235 195.5,74.5 Z"/></g>
<g><path style="opacity:0.901" fill="#0e0d0e" d="M 161.5,48.5 C 164.726,56.0901 166.893,64.0901 168,72.5C 169.24,89.1432 169.74,105.81 169.5,122.5C 168.833,140.167 168.167,157.833 167.5,175.5C 167.667,143.498 167.5,111.498 167,79.5C 166.788,76.2423 166.288,73.0757 165.5,70C 165.833,69.6667 166.167,69.3333 166.5,69C 164.193,68.6458 163.859,67.6458 165.5,66C 164.431,60.6321 162.764,55.1321 160.5,49.5C 160.624,48.8933 160.957,48.56 161.5,48.5 Z"/></g>
<g><path style="opacity:0.587" fill="#171717" d="M 169.5,122.5 C 169.333,192.167 169.5,261.834 170,331.5C 170.826,334.793 171.326,338.126 171.5,341.5C 171.631,342.239 171.464,342.906 171,343.5C 170.5,342.333 169.667,341.5 168.5,341C 169.566,337.455 169.233,333.955 167.5,330.5C 167.515,278.952 167.515,227.285 167.5,175.5C 168.167,157.833 168.833,140.167 169.5,122.5 Z"/></g>
<g><path style="opacity:1" fill="#202020" d="M 134.5,13.5 C 139.099,19.438 144.099,25.1047 149.5,30.5C 144.36,31.4881 139.026,31.8214 133.5,31.5C 134.139,68.2727 134.139,104.773 133.5,141C 134.167,141.333 134.833,141.667 135.5,142C 136.113,183.159 135.446,224.993 133.5,267.5C 135.606,290.481 135.939,313.481 134.5,336.5C 133.732,335.737 133.232,334.737 133,333.5C 132.5,323.506 132.334,313.506 132.5,303.5C 132.5,282.833 132.5,262.167 132.5,241.5C 132.5,222.167 132.5,202.833 132.5,183.5C 132.512,126.307 132.679,68.9732 133,11.5C 133.717,12.0442 134.217,12.7109 134.5,13.5 Z"/></g>
<g><path style="opacity:0.906" fill="#080808" d="M 136.5,13.5 C 135.833,13.5 135.167,13.5 134.5,13.5C 134.217,12.7109 133.717,12.0442 133,11.5C 132.679,68.9732 132.512,126.307 132.5,183.5C 131.833,171.833 131.167,160.167 130.5,148.5C 131.324,101.208 131.824,53.8744 132,6.5C 133.012,9.2018 134.512,11.5351 136.5,13.5 Z"/></g>
<g><path style="opacity:0.49" fill="#111111" d="M 130.5,148.5 C 131.167,160.167 131.833,171.833 132.5,183.5C 132.5,202.833 132.5,222.167 132.5,241.5C 131.833,241.5 131.167,241.5 130.5,241.5C 130.5,210.5 130.5,179.5 130.5,148.5 Z"/></g>
<g><path style="opacity:0.442" fill="#080808" d="M 280.5,193.5 C 338.61,206.61 373.943,242.276 386.5,300.5C 372.585,242.415 336.585,207.248 278.5,195C 279.416,194.722 280.082,194.222 280.5,193.5 Z"/></g>
<g><path style="opacity:0.947" fill="#151314" d="M 226.5,120.5 C 228.563,129.335 229.73,138.335 230,147.5C 230.5,233.833 230.667,320.166 230.5,406.5C 246.06,410.857 261.727,411.523 277.5,408.5C 277.611,409.117 277.944,409.617 278.5,410C 261.597,414.019 245.097,412.852 229,406.5C 228.832,319.93 228.332,233.43 227.5,147C 227.833,146.667 228.167,146.333 228.5,146C 228.018,139.905 227.018,133.905 225.5,128C 225.702,125.414 226.036,122.914 226.5,120.5 Z"/></g>
<g><path style="opacity:0.382" fill="#0b090a" d="M 277.5,193.5 C 268.358,193.74 259.025,193.74 249.5,193.5C 249.448,211.939 258.115,224.106 275.5,230C 307.141,236.809 329.474,254.976 342.5,284.5C 331.997,263.83 316.33,248.33 295.5,238C 285.116,235.243 275.116,231.576 265.5,227C 260.981,223.478 256.815,219.645 253,215.5C 250.52,208.33 248.687,200.997 247.5,193.5C 257.53,192.216 267.53,192.216 277.5,193.5 Z"/></g>
<g><path style="opacity:0.666" fill="#161616" d="M 130.5,241.5 C 131.167,241.5 131.833,241.5 132.5,241.5C 132.5,262.167 132.5,282.833 132.5,303.5C 131.833,307.833 131.167,312.167 130.5,316.5C 130.5,291.5 130.5,266.5 130.5,241.5 Z"/></g>
<g><path style="opacity:0.77" fill="#121011" d="M 192.5,167.5 C 192.833,167.5 193.167,167.5 193.5,167.5C 192.848,192.895 193.515,218.061 195.5,243C 193.839,287.451 192.839,331.951 192.5,376.5C 192.5,306.833 192.5,237.167 192.5,167.5 Z"/></g>
<g><path style="opacity:0.467" fill="#0d0b0c" d="M 342.5,284.5 C 344.99,287.626 346.323,291.292 346.5,295.5C 344.399,292.203 343.065,288.537 342.5,284.5 Z"/></g>
<g><path style="opacity:0.62" fill="#060405" d="M 386.5,301.5 C 388.837,316.185 388.504,330.852 385.5,345.5C 384.848,344.551 384.514,343.385 384.5,342C 385.496,335.701 386.162,329.367 386.5,323C 386.452,315.787 386.452,308.62 386.5,301.5 Z"/></g>
<g><path style="opacity:0.432" fill="#0c0b0b" d="M 132.5,303.5 C 132.334,313.506 132.5,323.506 133,333.5C 133.232,334.737 133.732,335.737 134.5,336.5C 133.916,343.276 134.916,349.943 137.5,356.5C 137.457,357.416 137.124,358.083 136.5,358.5C 132.408,344.841 130.408,330.841 130.5,316.5C 131.167,312.167 131.833,307.833 132.5,303.5 Z"/></g>
<g><path style="opacity:0.639" fill="#0c0a0b" d="M 346.5,295.5 C 348.011,297.476 348.844,299.809 349,302.5C 350.471,312.793 350.804,323.127 350,333.5C 349.878,335.437 349.045,336.77 347.5,337.5C 350.102,323.493 349.769,309.493 346.5,295.5 Z"/></g>
<g><path style="opacity:0.796" fill="#0f0e0e" d="M 344.5,350.5 C 345.097,350.735 345.43,351.235 345.5,352C 341.672,362.503 336.172,372.003 329,380.5C 327.195,382.482 325.028,383.816 322.5,384.5C 332.337,374.836 339.67,363.503 344.5,350.5 Z"/></g>
<g><path style="opacity:0.587" fill="#100f10" d="M 179.5,362.5 C 183.057,368.896 187.223,374.896 192,380.5C 192.483,379.552 192.649,378.552 192.5,377.5C 193.434,378.568 193.768,379.901 193.5,381.5C 192.448,381.649 191.448,381.483 190.5,381C 186.301,376.101 182.468,370.934 179,365.5C 178.26,364.251 178.427,363.251 179.5,362.5 Z"/></g>
<g><path style="opacity:0.806" fill="#090809" d="M 142.5,374.5 C 143.376,374.369 144.043,374.702 144.5,375.5C 152.036,389.251 161.036,401.917 171.5,413.5C 168.606,412.118 166.106,410.118 164,407.5C 155.329,397.496 148.163,386.496 142.5,374.5 Z"/></g>
<g><path style="opacity:0.922" fill="#0c0b0b" d="M 322.5,384.5 C 321.952,386.394 320.952,388.06 319.5,389.5C 307.978,400.267 294.645,406.6 279.5,408.5C 296.058,404.39 310.391,396.39 322.5,384.5 Z"/></g>
<g><path style="opacity:0.556" fill="#070606" d="M 385.5,347.5 C 373.193,395.658 343.527,427.825 296.5,444C 280.096,448.607 263.429,450.107 246.5,448.5C 246.5,448.167 246.5,447.833 246.5,447.5C 255.173,447.666 263.84,447.5 272.5,447C 331.771,437.369 368.938,403.869 384,346.5C 384.383,347.056 384.883,347.389 385.5,347.5 Z"/></g>
<g><path style="opacity:0.585" fill="#131212" d="M 246.5,447.5 C 246.5,447.833 246.5,448.167 246.5,448.5C 241.137,448.051 235.804,447.384 230.5,446.5C 230.5,461.167 230.5,475.833 230.5,490.5C 230.167,490.5 229.833,490.5 229.5,490.5C 228.711,490.217 228.044,489.717 227.5,489C 228.491,474.245 228.824,459.412 228.5,444.5C 234.551,445.244 240.551,446.244 246.5,447.5 Z"/></g>
<g><path style="opacity:0.075" fill="#0a090a" d="M 171.5,413.5 C 178.507,419.002 185.674,424.335 193,429.5C 194.979,450.289 203.479,467.789 218.5,482C 219.448,482.483 220.448,482.649 221.5,482.5C 222.982,486.174 225.148,489.507 228,492.5C 228.717,491.956 229.217,491.289 229.5,490.5C 229.833,490.5 230.167,490.5 230.5,490.5C 230.663,492.857 230.497,495.19 230,497.5C 223.738,489.234 216.738,481.568 209,474.5C 198.894,461.61 193.228,446.944 192,430.5C 184.324,425.64 177.491,419.974 171.5,413.5 Z"/></g>
</svg>
